<?xml version="1.0" encoding="iso-8859-1"?>
<!-- Generator: Adobe Illustrator 16.0.0, SVG Export Plug-In . SVG Version: 6.00 Build 0)  -->
<!DOCTYPE svg PUBLIC "-//W3C//DTD SVG 1.1//EN" "http://www.w3.org/Graphics/SVG/1.1/DTD/svg11.dtd">
<svg version="1.1" id="Capa_1" xmlns="http://www.w3.org/2000/svg" xmlns:xlink="http://www.w3.org/1999/xlink" x="0px" y="0px"
	 width="612px" height="612px" viewBox="0 0 612 612" style="enable-background:new 0 0 612 612;" xml:space="preserve">
<g>
	<g id="Shape_193_copy">
		<g>
			<path d="M583.533,135.35h-42.702v-28.444c0.005-31.418-25.483-56.888-56.925-56.888H56.929C25.488,50.018,0,75.488,0,106.906
				v241.763c0,31.427,25.488,56.878,56.929,56.878H227.72v55.211c-52.868,5.322-91.312,21.465-91.312,40.58
				c0,23.426,57.877,42.427,129.272,42.427c71.395,0,129.272-19.001,129.272-42.427c0-19.687-40.769-36.215-96.068-41.021v-54.77
				h128.093v128.011c0,15.699,12.744,28.425,28.467,28.425h128.094c15.723,0,28.462-12.726,28.462-28.425V163.784
				C612,148.08,599.256,135.35,583.533,135.35z M426.978,163.784v184.88H85.396c-15.718,0-28.467-12.73-28.467-28.448V121.123
				c0-15.7,12.744-28.448,28.467-28.448h370.049c15.723,0,28.467,12.749,28.467,28.448v14.227h-28.462
				C439.722,135.35,426.978,148.08,426.978,163.784z M555.071,490.896c0,15.69-12.744,28.43-28.467,28.43h-14.231
				c-15.723,0-28.467-12.744-28.467-28.43V476.66c0-15.709,12.744-28.443,28.467-28.443h14.231c15.723,0,28.467,12.73,28.467,28.443
				V490.896z M555.071,320.219h-71.165c-15.723,0-28.462-12.729-28.462-28.43c0-15.704,12.744-28.448,28.462-28.448h71.165
				c15.723,0,28.467,12.744,28.467,28.448C583.533,307.485,570.789,320.219,555.071,320.219z M555.071,234.893h-71.165
				c-15.723,0-28.462-12.735-28.462-28.43c0-15.718,12.744-28.444,28.462-28.444h71.165c15.723,0,28.467,12.726,28.467,28.444
				C583.533,222.158,570.789,234.893,555.071,234.893z"/>
		</g>
	</g>
</g>
<g>
</g>
<g>
</g>
<g>
</g>
<g>
</g>
<g>
</g>
<g>
</g>
<g>
</g>
<g>
</g>
<g>
</g>
<g>
</g>
<g>
</g>
<g>
</g>
<g>
</g>
<g>
</g>
<g>
</g>
</svg>
